<?xml version="1.0" standalone="no"?>
<!DOCTYPE svg PUBLIC "-//W3C//DTD SVG 20010904//EN"
 "http://www.w3.org/TR/2001/REC-SVG-20010904/DTD/svg10.dtd">
<svg version="1.0" xmlns="http://www.w3.org/2000/svg"
 width="4000.000000pt" height="4000.000000pt" viewBox="0 0 4000.000000 4000.000000"
 preserveAspectRatio="xMidYMid meet">

<g transform="translate(0.000000,4000.000000) scale(0.100000,-0.100000)"
fill="#000000" stroke="none">
<path d="M6255 37089 c-349 -28 -705 -102 -961 -198 -59 -23 -122 -53 -142
-67 -110 -85 -236 -570 -297 -1149 -17 -157 -36 -669 -29 -758 24 -308 50
-488 120 -857 69 -363 76 -384 174 -549 136 -228 194 -334 361 -659 69 -133
89 -164 109 -168 14 -3 34 -8 44 -11 18 -5 19 0 12 83 -3 49 -9 211 -12 359
l-7 271 149 11 c82 7 236 20 342 29 106 9 195 14 197 12 2 -2 -3 -35 -11 -73
-79 -371 13 -758 233 -981 397 -403 996 -131 1156 525 17 69 32 128 33 129 1
2 138 -13 304 -34 289 -37 301 -39 295 -59 -4 -11 -9 -90 -12 -175 -6 -171 6
-266 52 -399 102 -302 338 -457 582 -383 340 104 592 604 544 1078 -39 390
-240 644 -510 644 -94 0 -157 -18 -239 -67 -159 -97 -290 -276 -366 -503 -27
-78 -40 -105 -52 -103 -9 0 -146 30 -305 65 l-289 63 0 70 c0 199 -68 420
-180 585 -47 70 -154 171 -223 210 -181 104 -408 100 -595 -12 -115 -69 -251
-222 -333 -374 -16 -31 -18 -31 -394 -79 -111 -15 -334 -46 -352 -50 -23 -5
-23 -4 -23 94 0 119 17 418 31 556 40 394 192 788 416 1087 l76 100 46 -7 c76
-11 470 -92 639 -130 641 -148 1301 -350 1701 -521 58 -25 110 -49 114 -53 4
-4 1 -66 -8 -137 -24 -203 -30 -182 83 -257 255 -171 439 -337 568 -515 l59
-83 26 59 c56 125 56 119 20 234 -37 114 -93 233 -153 321 -21 31 -36 57 -32
57 10 0 213 -145 312 -223 97 -77 343 -298 372 -334 10 -13 43 -50 74 -84 l56
-60 -55 103 c-494 932 -653 1234 -650 1237 2 2 86 -60 187 -137 101 -78 350
-269 553 -425 204 -156 371 -279 373 -272 5 20 -94 276 -178 462 -228 506
-555 986 -925 1359 -228 230 -375 353 -615 517 -502 341 -1026 535 -1660 612
-159 20 -639 28 -805 14z m2485 -2500 c0 -6 -4 -7 -10 -4 -5 3 -10 11 -10 16
0 6 5 7 10 4 6 -3 10 -11 10 -16z m-1546 -621 c182 -56 339 -240 412 -483 22
-74 27 -116 32 -238 5 -165 -6 -256 -45 -382 -82 -260 -254 -458 -461 -531
-88 -31 -221 -33 -314 -4 -195 60 -368 271 -428 520 -96 402 57 858 354 1051
144 94 289 116 450 67z m1932 -393 c169 -82 286 -306 301 -575 21 -380 -159
-756 -424 -887 -72 -36 -83 -38 -167 -38 -80 0 -98 3 -151 29 -134 66 -243
228 -286 426 -29 133 -23 350 15 493 50 194 169 393 288 484 105 80 172 104
284 100 65 -3 93 -9 140 -32z"/>
<path d="M30905 36003 c-301 -37 -713 -246 -1031 -521 l-81 -70 -114 5 c-221
10 -568 -28 -759 -84 -314 -91 -484 -224 -576 -451 -45 -111 -58 -195 -59
-373 l-1 -166 -32 -44 c-43 -58 -86 -148 -108 -229 -26 -91 -26 -357 -1 -450
50 -186 210 -378 373 -446 28 -12 34 -19 29 -32 -40 -94 -44 -262 -7 -344 38
-87 156 -171 302 -216 167 -51 425 -54 568 -7 190 64 449 237 666 445 l81 78
39 -34 c97 -84 298 -116 484 -78 155 32 474 149 654 240 l49 25 37 -32 c103
-90 291 -119 556 -84 142 19 313 62 453 115 59 22 111 40 117 40 19 0 87 -101
128 -188 47 -99 82 -231 99 -373 17 -147 7 -659 -34 -1762 -7 -169 -10 -307
-8 -307 3 0 30 16 60 36 33 22 71 57 91 88 79 115 354 359 511 454 31 19 56
62 211 369 458 906 663 1487 608 1724 -56 239 -317 550 -680 809 -41 30 -76
54 -78 55 -1 1 13 35 32 76 54 117 69 188 64 309 -4 93 -7 112 -35 165 -88
171 -337 324 -596 365 l-77 13 0 32 c0 18 -9 61 -20 96 -53 172 -228 335 -395
369 -119 24 -299 -13 -422 -87 -31 -18 -57 -32 -59 -31 -1 2 -19 28 -40 58
-159 233 -397 387 -673 435 -76 14 -249 18 -326 8z"/>
<path d="M7275 34960 c-310 -47 -608 -149 -799 -273 -151 -99 -305 -265 -365
-394 l-24 -51 63 -81 c34 -45 64 -81 65 -81 1 0 33 20 71 45 220 145 536 266
769 294 110 13 344 14 444 1 41 -6 76 -9 77 -7 6 5 75 500 71 511 -2 6 -35
-32 -73 -84 l-69 -94 -3 117 -3 117 -52 -1 c-29 0 -106 -9 -172 -19z"/>
<path d="M4532 33750 c93 -132 255 -407 361 -610 38 -74 80 -154 93 -177 l24
-42 -31 -36 c-57 -64 -111 -80 -172 -49 -54 27 -95 62 -147 125 -56 67 -62 67
-23 0 61 -106 132 -180 214 -223 36 -19 59 -23 126 -23 73 0 84 3 108 25 l26
24 26 -34 c37 -49 189 -200 202 -200 31 0 -158 397 -289 607 -141 225 -344
482 -451 574 -72 61 -89 71 -67 39z"/>
<path d="M24076 33680 c-517 -26 -1377 -105 -1791 -165 -148 -22 -224 -62
-346 -184 -295 -295 -491 -805 -553 -1446 -31 -312 -39 -595 -33 -1173 7 -688
26 -1102 93 -1942 24 -298 34 -382 34 -277 0 157 68 1248 76 1222 4 -11 64
-763 89 -1100 9 -115 22 -257 31 -315 14 -97 50 -280 56 -286 2 -1 57 9 124
22 231 45 464 67 464 45 0 -18 -154 -111 -305 -186 -172 -85 -222 -126 -206
-168 l10 -26 62 25 c35 13 88 29 119 36 70 14 107 -1 133 -54 l19 -38 64 0
c38 0 77 -6 93 -15 32 -16 77 -65 86 -94 13 -40 54 -46 350 -46 219 0 338 5
543 24 144 14 262 28 262 33 0 4 -5 8 -11 8 -21 0 -196 109 -300 186 -432 321
-957 877 -1119 1185 -56 108 -64 171 -57 474 5 234 19 398 64 770 16 133 19
148 39 155 30 12 59 55 129 191 l60 118 -3 -105 c-5 -130 1 -159 28 -144 27
15 87 12 120 -5 74 -38 80 -165 11 -210 -9 -5 -29 -15 -45 -21 l-30 -10 44
-48 c55 -59 106 -86 165 -86 116 0 209 89 266 253 l27 79 12 -59 c7 -32 23
-114 35 -183 26 -143 29 -140 15 15 -36 393 -96 678 -177 840 -68 136 -127
185 -220 185 -154 0 -278 -96 -378 -294 l-42 -84 4 136 c6 234 5 229 57 332
58 116 121 205 180 256 24 22 108 77 187 124 232 137 339 258 356 399 6 53 6
53 -18 46 -163 -49 -439 -228 -557 -361 -88 -99 -169 -284 -187 -427 -4 -31
-11 -59 -15 -62 -14 -9 -23 356 -10 418 11 53 19 65 118 168 250 262 523 409
875 473 222 41 345 50 637 50 382 -1 745 -38 1145 -119 229 -47 244 -51 249
-78 21 -102 112 -454 141 -541 22 -70 77 -190 149 -330 l114 -221 6 -110 c35
-596 28 -810 -40 -1320 l-7 -50 48 65 c80 110 268 288 390 369 324 218 732
348 818 262 21 -20 22 -31 22 -164 0 -149 -11 -223 -61 -394 -32 -112 -93
-252 -143 -328 -148 -225 -494 -507 -746 -607 -160 -63 -283 -34 -402 97 l-59
63 -24 -46 c-139 -263 -757 -842 -1229 -1150 -200 -131 -370 -212 -446 -212
-31 0 -34 -4 -55 -59 -12 -33 -37 -85 -56 -115 -41 -65 -95 -96 -247 -141 -59
-17 -93 -32 -85 -36 25 -14 176 -49 295 -68 303 -50 517 -52 702 -6 94 23 239
82 299 121 l22 15 -40 57 c-45 65 -60 131 -60 271 l0 84 80 -6 c139 -11 281
-81 440 -218 66 -56 321 -229 338 -229 15 0 346 312 443 416 95 102 359 413
423 497 16 21 30 36 32 34 2 -2 -35 -100 -82 -218 -126 -314 -125 -311 -114
-304 13 8 321 404 462 595 609 824 928 1378 928 1614 0 142 -129 641 -297
1151 -168 509 -336 905 -490 1160 -238 390 -792 970 -1207 1262 -231 163 -412
247 -586 273 -101 15 -582 21 -804 10z"/>
<path d="M16555 32814 c-794 -94 -1768 -461 -2708 -1021 -492 -293 -829 -543
-1107 -823 -443 -444 -660 -838 -774 -1403 -71 -352 -94 -626 -106 -1267 -28
-1452 -71 -2063 -200 -2825 -107 -630 -241 -1066 -439 -1423 -152 -275 -210
-445 -211 -613 0 -95 20 -164 63 -214 19 -22 49 -69 67 -104 17 -36 53 -99 79
-140 72 -114 190 -328 217 -393 13 -31 35 -94 48 -140 14 -46 25 -74 25 -63 1
34 87 383 131 535 70 239 223 643 370 980 40 91 79 182 87 202 14 33 32 47
157 116 185 103 301 175 438 273 575 411 918 865 1043 1383 14 54 26 100 27
102 7 7 280 34 344 34 57 0 95 8 185 39 l114 39 250 6 c513 13 941 40 1150 72
100 15 266 54 317 73 24 9 38 4 115 -40 160 -92 364 -196 698 -354 380 -180
424 -203 535 -285 143 -107 267 -245 330 -370 104 -206 167 -607 295 -1890 84
-838 99 -956 171 -1290 65 -302 197 -814 216 -837 6 -7 25 -13 43 -13 41 0 37
-17 70 310 15 140 33 281 41 313 36 148 165 425 405 867 149 277 292 564 315
633 9 29 34 93 56 142 89 199 138 404 138 571 0 303 -214 632 -640 987 -150
125 -284 253 -361 345 -36 43 -45 50 -46 33 -1 -11 9 -29 22 -40 l25 -18 -25
0 c-19 0 -39 20 -93 91 -38 50 -87 117 -108 149 -36 56 -37 60 -26 100 7 23
19 80 28 127 31 168 74 263 239 525 129 205 215 375 222 437 11 99 -61 296
-168 455 -78 117 -122 167 -364 413 -122 124 -242 253 -268 287 -146 192 -200
390 -163 603 19 108 60 229 246 730 336 901 448 1338 399 1557 -36 166 -238
272 -604 317 -156 19 -221 25 -267 26 l-38 0 0 276 c0 217 -3 274 -12 268 -9
-5 -10 -4 -2 5 5 6 45 12 87 14 42 1 77 5 77 8 0 7 221 28 403 37 l128 7 -33
44 -32 44 -200 -7 c-111 -4 -216 -9 -235 -13 -22 -4 -32 -2 -28 5 4 5 1 15 -6
21 -10 8 -14 7 -14 -4 0 -8 5 -11 10 -8 6 3 7 1 3 -6 -10 -15 -31 -9 -31 9 0
23 -31 19 -33 -4 -1 -15 1 -17 7 -7 6 8 11 9 15 3 9 -15 -2 -19 -56 -21 l-48
-1 0 270 c0 209 3 270 13 270 8 0 7 3 -3 10 -11 7 -8 11 15 20 16 6 38 12 49
13 12 1 24 7 28 12 5 6 15 5 30 -4 13 -7 -13 23 -57 68 -44 45 -85 81 -91 81
-7 0 -14 7 -18 15 -3 8 -13 15 -22 15 -10 0 -14 3 -11 6 7 7 -36 44 -51 44
-11 0 -24 -28 -18 -39 3 -4 -4 -8 -15 -8 -17 -2 -18 0 -4 13 19 20 19 28 -1
20 -8 -3 -12 -2 -9 4 3 6 13 10 21 10 17 0 19 16 2 26 -7 5 -8 3 -3 -6 5 -9 4
-11 -3 -6 -7 4 -12 13 -12 19 0 13 -117 91 -195 130 -101 50 -145 57 -344 56
-102 -1 -240 -8 -306 -15z m868 -271 c-7 -2 -19 -2 -25 0 -7 3 -2 5 12 5 14 0
19 -2 13 -5z m17 -36 c11 -5 9 -6 -4 -4 -11 1 -21 9 -23 17 -3 10 -2 11 4 4 4
-6 15 -14 23 -17z m45 13 c3 -5 -1 -10 -10 -10 -9 0 -13 5 -10 10 3 6 8 10 10
10 2 0 7 -4 10 -10z m28 -201 c-4 -16 -8 -17 -14 -7 -7 10 -9 11 -9 0 0 -7 -5
-10 -11 -6 -8 4 -3 12 12 20 13 7 25 13 26 14 0 0 -1 -9 -4 -21z m17 -244 c0
-135 -3 -245 -7 -245 -5 0 -7 95 -5 211 2 170 0 209 -10 203 -10 -5 -11 -4 0
7 6 7 12 26 12 41 0 15 2 28 5 28 3 0 5 -110 5 -245z m-83 193 c-9 -5 -8 -8 2
-8 8 0 11 -3 8 -6 -12 -12 -35 17 -30 37 5 18 6 18 18 2 10 -13 10 -20 2 -25z
m-29 -232 l-3 -211 -2 213 c-2 117 -7 211 -12 208 -4 -3 -8 1 -8 9 0 11 4 12
14 4 10 -9 13 -57 11 -223z m33 -217 c8 -15 8 -19 0 -15 -6 4 -11 2 -11 -3 0
-6 -8 -11 -17 -11 -15 0 -15 1 2 13 10 8 15 19 11 25 -4 7 -5 12 -2 12 3 0 10
-10 17 -21z m79 -31 c0 -4 -7 -5 -15 -2 -8 4 -22 1 -29 -5 -11 -9 -16 -9 -22
0 -4 7 -3 9 3 6 6 -4 19 2 29 12 18 17 33 12 34 -11z m-6 -127 c5 -1 3 -8 -5
-17 -12 -14 -14 -14 -24 0 -7 9 -16 12 -20 8 -5 -4 -5 -2 -2 5 4 6 15 10 25 8
9 -2 21 -4 26 -4z m-78 -13 c3 -4 -1 -5 -10 -4 -8 1 -18 5 -22 8 -3 4 1 5 10
4 8 -1 18 -5 22 -8z m84 -274 c0 -136 -3 -250 -6 -253 -2 -3 -4 111 -4 253 1
142 4 256 6 253 3 -3 5 -117 4 -253z m-113 -136 c-1 -68 -3 -13 -3 122 0 135
2 190 3 123 2 -68 2 -178 0 -245z m-300 -187 c311 -241 532 -510 596 -728 16
-52 44 -409 33 -420 -2 -3 -24 10 -48 30 -24 19 -95 66 -159 105 -134 80 -239
156 -322 231 l-57 53 -17 -38 c-9 -22 -18 -77 -21 -127 -5 -104 11 -158 66
-219 66 -73 151 -111 290 -129 107 -14 164 -32 220 -71 l44 -30 -7 -72 c-16
-174 -65 -590 -70 -594 -6 -7 -7 -1 -9 148 -2 93 -8 146 -24 208 -25 93 -81
252 -89 252 -3 0 -2 -8 2 -17 12 -31 35 -196 35 -258 l0 -59 -32 54 c-18 30
-48 63 -66 73 -45 27 -117 25 -173 -3 -125 -64 -288 -303 -419 -616 -41 -98
-140 -369 -140 -382 0 -4 20 28 44 71 l43 77 19 -41 c42 -95 98 -146 181 -163
76 -17 183 43 243 136 l40 62 -31 10 c-98 33 -97 179 2 212 20 7 45 8 62 3
l29 -8 -4 97 c-5 107 -25 174 -69 240 -16 24 -27 47 -24 52 10 16 103 41 128
35 56 -14 89 -90 102 -230 11 -114 22 -145 51 -145 13 0 40 7 59 14 l35 15 0
-142 c0 -155 14 -262 62 -492 64 -307 40 -466 -104 -678 -183 -270 -715 -613
-1228 -792 -133 -46 -421 -120 -523 -134 -213 -29 -371 2 -607 118 -488 241
-1057 783 -1260 1199 -41 83 -60 110 -60 82 0 -20 -72 -89 -113 -108 -198 -93
-402 -17 -667 248 -130 129 -291 337 -349 450 -50 97 -97 239 -117 354 -23
130 -15 339 15 419 40 104 93 147 180 147 190 0 448 -188 759 -553 55 -65 130
-167 167 -226 37 -59 94 -140 128 -181 l62 -75 6 425 c3 234 9 432 13 440 7
14 176 152 195 158 5 2 18 -12 30 -31 27 -45 123 -134 158 -148 44 -18 137
-12 240 16 52 14 97 25 99 25 3 0 -3 -14 -12 -32 -121 -233 -52 -533 147 -643
48 -27 63 -30 139 -30 69 0 93 4 125 22 72 40 71 37 26 78 -71 65 -74 154 -7
221 41 41 95 53 153 32 l42 -15 6 46 c3 25 2 75 -4 111 -6 35 -9 66 -7 68 9 8
91 -126 136 -222 53 -111 94 -221 146 -396 l34 -115 -6 110 c-22 394 -150 718
-341 858 -99 72 -275 132 -428 145 l-90 7 102 58 c117 67 172 90 298 123 l90
23 -61 1 c-71 0 -207 -22 -314 -51 -72 -20 -225 -80 -449 -176 l-105 -44 -43
16 -42 16 53 77 c101 144 173 306 231 520 19 69 38 129 42 133 16 16 169 21
258 10 50 -7 205 -35 345 -62 286 -57 419 -67 476 -37 41 22 92 82 115 134 23
52 52 164 45 171 -3 3 -97 -1 -208 -11 -395 -32 -495 -37 -658 -30 -150 6
-284 -3 -332 -21 -14 -6 -15 1 -2 65 7 40 16 116 20 169 3 53 7 97 8 98 3 4
444 78 676 114 485 74 1011 134 1380 159 91 6 181 12 200 14 96 8 94 9 187
-63z m1245 -5852 c48 -53 107 -114 133 -135 25 -22 45 -43 45 -49 0 -5 -4 -3
-10 5 -5 8 -12 11 -16 7 -10 -10 -11 -57 -2 -63 11 -7 10 -655 -1 -672 -12
-20 -139 122 -193 218 -115 205 -152 499 -101 814 l6 40 26 -34 c14 -19 65
-78 113 -131z m173 -220 c-10 -15 -25 -10 -19 6 4 8 10 12 15 9 5 -3 7 -10 4
-15z"/>
<path d="M12845 29308 c84 -69 245 -218 369 -343 155 -156 366 -399 366 -422
0 -26 -48 -100 -79 -122 -54 -38 -178 -18 -314 51 -22 11 -41 18 -42 16 -7 -7
142 -111 214 -151 136 -75 215 -60 267 52 16 33 32 60 36 60 4 1 33 -33 64
-74 31 -42 59 -73 62 -71 6 7 -144 295 -212 403 -177 287 -330 429 -609 569
-143 71 -184 82 -122 32z"/>
<path d="M14485 29090 c8 -167 57 -298 132 -358 74 -58 247 -129 358 -147 38
-5 36 -4 -18 19 -88 38 -218 129 -278 193 -94 103 -144 194 -185 338 l-14 50
5 -95z"/>
<path d="M17481 28534 c-51 -86 -122 -151 -184 -168 -66 -19 -202 -36 -289
-36 -37 0 -69 -4 -72 -8 -7 -11 162 -50 275 -64 142 -18 188 1 233 96 24 51
79 226 73 232 -1 2 -18 -21 -36 -52z"/>
<path d="M14979 27990 c-17 -11 18 -86 148 -315 108 -189 158 -257 275 -370
109 -106 167 -150 263 -198 112 -56 174 -70 285 -65 171 8 263 70 385 258 86
132 167 215 283 293 149 100 150 101 12 92 -336 -23 -911 -1 -1118 41 -187 38
-344 111 -450 209 -50 46 -72 61 -83 55z m652 -436 c232 -68 430 -99 591 -91
l108 5 -41 -50 c-73 -86 -166 -116 -303 -97 -153 21 -311 94 -544 252 -73 49
-135 93 -137 97 -3 4 44 -12 103 -37 59 -24 159 -60 223 -79z"/>
<path d="M18483 24995 c0 -8 4 -12 9 -9 5 3 6 10 3 15 -9 13 -12 11 -12 -6z"/>
<path d="M29740 32641 c-289 -108 -552 -318 -656 -523 -21 -41 -24 -61 -24
-154 l0 -106 53 38 c341 248 503 328 725 355 l102 13 0 185 -1 186 -30 -33
-30 -33 -13 33 c-7 18 -16 41 -19 51 -8 22 -18 21 -107 -12z"/>
<path d="M30977 32597 c-4 -40 -9 -122 -13 -182 l-7 -110 249 0 c259 0 332 -7
454 -47 83 -26 208 -87 285 -137 33 -22 61 -38 63 -36 2 2 14 45 27 97 l24 93
-62 60 c-81 77 -197 157 -292 201 -90 41 -271 86 -460 114 -207 30 -191 34
-205 -52 l-13 -73 -19 70 c-11 38 -20 71 -22 72 -2 2 -6 -30 -9 -70z"/>
<path d="M17629 32368 c0 -2 -2 -11 -4 -21 -3 -15 -1 -16 11 -6 7 6 11 15 8
20 -5 9 -13 12 -15 7z"/>
<path d="M6755 31993 c181 -472 363 -794 488 -867 115 -67 345 -54 666 39 198
57 192 50 75 94 -397 150 -626 303 -1160 773 -62 54 -114 98 -117 98 -3 0 19
-62 48 -137z m311 -214 c226 -192 430 -329 670 -450 l152 -76 -79 -6 c-93 -7
-272 7 -344 28 -28 8 -72 28 -98 45 -95 63 -284 284 -462 540 -119 172 -121
177 -18 80 49 -47 130 -120 179 -161z"/>
<path d="M24285 32058 c12 -78 36 -137 78 -191 79 -101 144 -146 399 -278 103
-54 219 -118 257 -144 84 -56 267 -220 342 -304 29 -34 57 -61 60 -61 12 0
-21 109 -60 201 -126 292 -389 534 -761 700 -88 39 -300 119 -317 119 -3 0 -2
-19 2 -42z"/>
<path d="M31407 31899 c-88 -21 -167 -76 -234 -164 -111 -147 -196 -381 -243
-670 -26 -158 -24 -188 5 -90 71 240 161 438 253 561 74 98 129 145 208 174
23 9 20 4 -17 -29 -25 -22 -59 -66 -76 -98 -31 -58 -63 -168 -63 -214 0 -23 4
-25 48 -25 78 0 132 -52 132 -126 0 -62 -62 -128 -120 -128 l-20 0 20 -40
c104 -203 323 -221 445 -37 63 95 78 155 79 302 0 77 -5 141 -12 158 -24 56 0
25 28 -37 36 -80 66 -193 82 -310 l12 -91 8 95 c15 190 -19 412 -82 546 -82
170 -274 265 -453 223z"/>
<path d="M29410 31731 c-180 -55 -272 -308 -269 -744 l1 -162 29 165 c51 292
120 482 199 554 22 20 45 36 50 36 6 0 -3 -24 -19 -52 -29 -51 -52 -128 -66
-215 -6 -40 -5 -41 24 -48 37 -8 87 -62 96 -104 9 -41 -20 -100 -62 -126 -18
-11 -32 -27 -33 -35 0 -32 59 -137 97 -171 74 -67 143 -61 213 18 l40 46 2
-29 c0 -16 5 14 9 66 19 228 -22 553 -86 679 -54 106 -134 149 -225 122z"/>
<path d="M24650 31225 c-86 -25 -140 -56 -206 -120 -182 -178 -364 -581 -495
-1098 -17 -66 -28 -122 -25 -125 3 -3 6 1 6 8 0 20 124 306 188 435 30 61 82
157 116 215 l61 105 6 -120 c3 -66 9 -130 13 -141 l6 -21 41 20 c35 17 46 18
79 8 109 -32 130 -175 35 -227 l-34 -18 22 -24 c31 -34 115 -72 160 -72 23 0
72 16 130 43 87 41 96 48 135 106 23 35 54 100 68 144 46 142 36 368 -23 480
-27 53 -8 36 47 -41 79 -111 141 -172 175 -172 49 0 95 65 177 250 43 97 48
122 21 98 -32 -28 -81 -48 -117 -48 -33 0 -39 5 -88 77 -76 111 -140 176 -211
214 -54 29 -73 33 -147 36 -54 2 -105 -3 -140 -12z"/>
<path d="M33825 31107 c-170 -90 -260 -145 -425 -263 -172 -122 -564 -433
-556 -441 2 -2 41 10 87 27 45 16 86 30 90 30 4 0 5 -34 2 -75 -16 -213 124
-267 410 -159 37 14 67 26 67 27 0 1 -51 2 -112 2 -93 0 -119 3 -144 19 -58
35 -82 104 -70 200 l7 54 86 41 c181 87 278 164 513 406 133 137 185 195 174
195 -5 0 -63 -29 -129 -63z"/>
<path d="M6190 31048 c0 -8 7 -59 15 -114 8 -54 15 -111 15 -126 l0 -26 -72
19 c-125 32 -261 58 -637 118 -200 33 -368 64 -374 70 -12 12 -7 12 -387 -40
-158 -21 -289 -39 -292 -39 -3 0 -9 -48 -13 -107 -9 -159 -32 -327 -55 -417
-28 -104 -76 -197 -210 -401 -130 -199 -213 -360 -239 -466 -40 -156 -36 -399
9 -662 18 -107 18 -110 -1 -165 -11 -32 -53 -163 -94 -292 -511 -1628 -1053
-3841 -1101 -4495 -21 -289 133 -1164 372 -2120 250 -998 497 -1725 676 -1988
98 -144 433 -328 929 -510 251 -93 495 -170 508 -163 5 4 72 90 147 192 l137
186 -17 175 c-9 96 -15 177 -13 180 3 2 24 -8 48 -23 l43 -27 73 39 c40 22 79
44 86 49 29 21 244 1302 391 2335 336 2345 450 4137 350 5500 -66 908 -230
1640 -498 2224 -30 65 -34 78 -19 73 10 -3 50 -17 88 -31 220 -78 462 -136
674 -161 216 -25 680 -18 946 16 83 10 92 10 130 -9 22 -11 103 -38 179 -59
l140 -38 54 -225 c294 -1227 524 -2061 669 -2430 25 -63 114 -252 198 -420 84
-168 254 -513 378 -766 l226 -461 -19 -374 c-56 -1080 -66 -1317 -75 -1784
-10 -438 6 -737 69 -1375 163 -1625 240 -2501 271 -3085 8 -159 22 -375 31
-479 8 -104 12 -192 7 -196 -11 -10 -484 -82 -783 -119 -323 -41 -508 -54
-685 -50 -142 4 -153 6 -207 33 -116 59 -224 176 -524 571 -303 399 -492 607
-679 748 -208 157 -529 271 -985 351 -161 29 -482 77 -486 73 -1 -1 -11 -51
-23 -112 -12 -60 -24 -120 -27 -132 -5 -19 5 -27 87 -69 51 -25 145 -67 209
-91 63 -25 116 -46 118 -48 7 -6 -167 -342 -308 -595 -81 -146 -164 -298 -186
-337 -21 -40 -42 -73 -45 -73 -20 0 -70 188 -108 408 l-28 157 -35 -55 c-131
-204 -197 -427 -220 -740 -10 -140 -9 -203 5 -415 46 -676 58 -3934 17 -4765
-20 -421 -27 -457 -204 -1071 -295 -1028 -398 -1464 -467 -1992 -18 -130 -22
-241 -29 -772 -8 -612 -16 -835 -45 -1415 -26 -511 -74 -1190 -96 -1354 -26
-200 -115 -395 -359 -792 -126 -204 -180 -305 -180 -337 0 -38 33 -78 103
-126 72 -48 135 -110 139 -134 1 -7 2 -77 3 -157 1 -104 6 -156 17 -185 l15
-40 338 -3 c318 -2 337 -1 332 15 -3 10 -15 50 -27 88 -30 98 -32 232 -3 296
50 110 195 157 521 166 146 4 192 9 192 18 0 7 16 37 36 66 20 30 43 68 52 84
24 45 19 175 -13 325 -17 81 -29 169 -32 250 -4 109 -2 141 22 255 52 253 181
780 639 2615 488 1950 611 2456 782 3200 225 981 435 1839 610 2492 46 174 88
326 92 338 13 36 238 -751 350 -1230 215 -913 262 -1417 231 -2485 -55 -1910
44 -2496 759 -4470 253 -699 269 -754 259 -908 -6 -108 -32 -196 -122 -417
-114 -281 -121 -356 -45 -507 52 -102 141 -203 180 -203 31 0 741 93 964 126
93 14 177 29 187 34 26 15 35 53 65 275 l27 206 -30 32 c-59 62 -77 119 -59
181 7 23 43 86 79 140 37 53 67 108 67 121 0 16 -23 44 -80 95 -91 82 -106
113 -139 281 -148 776 -269 3681 -240 5769 24 1683 22 2068 -11 2935 -27 673
-88 1730 -134 2320 -13 160 -22 292 -20 294 15 17 63 -96 98 -228 l23 -85 12
65 c18 98 80 316 106 374 12 29 30 55 40 58 27 11 73 -23 112 -82 l36 -53 43
83 c49 96 92 140 124 132 26 -7 70 -69 100 -143 31 -73 37 -78 45 -38 9 41 48
120 69 137 23 20 76 9 97 -19 29 -39 56 -168 79 -375 28 -254 44 -321 84 -361
58 -58 100 -64 465 -64 344 0 613 -11 874 -35 86 -8 231 -15 321 -15 l164 0
11 33 c18 56 99 419 146 650 61 307 119 650 160 954 34 255 136 1252 195 1903
16 184 32 354 35 377 4 40 3 42 -45 73 l-50 32 -107 -45 c-147 -61 -169 -68
-443 -137 -806 -202 -1177 -254 -1256 -175 -22 22 -24 32 -24 120 0 70 -3 94
-12 89 -8 -5 -10 8 -5 51 l6 58 -120 -5 c-73 -3 -119 -1 -119 4 0 6 18 76 40
157 79 292 110 492 117 756 6 226 -3 332 -48 555 -86 426 -237 880 -476 1433
-55 128 -99 249 -124 340 l-39 142 -120 1665 c-213 2963 -222 3072 -241 3143
-24 92 -108 234 -218 372 -76 96 -227 251 -277 286 -82 56 -361 158 -764 279
-107 32 -217 67 -245 78 -94 38 -590 288 -653 330 -35 22 -72 44 -82 47 -11 3
-44 -9 -82 -29 -81 -44 -152 -56 -335 -57 -257 -1 -527 56 -688 144 -88 49
-222 217 -495 618 -60 89 -110 156 -110 147z m-1155 -6075 c-3 -38 -14 -180
-25 -318 -25 -313 -65 -717 -135 -1365 -30 -278 -61 -577 -70 -665 -9 -87 -17
-160 -18 -162 -6 -5 -68 396 -83 537 -22 200 -22 606 0 807 42 388 122 710
268 1081 33 83 62 152 65 152 2 0 2 -30 -2 -67z"/>
<path d="M18906 30518 c-133 -475 -264 -1040 -331 -1438 -71 -417 -92 -756
-61 -998 36 -278 120 -548 260 -837 79 -163 185 -347 207 -361 6 -3 35 17 64
46 l53 52 -58 79 c-181 245 -330 564 -403 869 -43 177 -52 255 -51 460 0 161
5 226 28 375 76 497 194 1046 335 1553 l51 183 -30 59 c-17 33 -31 60 -33 60
-1 0 -15 -46 -31 -102z"/>
<path d="M31281 30325 c39 -58 69 -110 67 -115 -7 -21 -209 -238 -270 -291
-239 -206 -440 -297 -728 -330 -163 -18 -503 -6 -687 26 -28 5 -33 3 -33 -14
0 -16 13 -22 72 -36 171 -39 272 -49 488 -49 185 -1 231 3 330 22 195 40 338
107 520 245 91 69 257 226 333 314 l36 42 43 -24 c59 -32 198 -58 198 -36 0
17 -201 266 -238 294 -40 31 -118 57 -168 57 l-33 0 70 -105z"/>
<path d="M19075 29978 c-10 -29 -87 -442 -129 -688 -79 -467 -89 -543 -83
-670 6 -138 25 -214 83 -339 54 -114 114 -200 208 -295 74 -75 234 -201 244
-191 12 12 -47 96 -127 180 -234 244 -351 493 -351 745 0 126 58 522 125 855
24 124 34 203 37 293 2 67 2 122 0 122 -1 0 -5 -6 -7 -12z"/>
<path d="M26475 29836 c-234 -116 -422 -226 -597 -349 -128 -90 -319 -239
-314 -244 2 -2 38 10 80 26 l76 29 21 -49 c29 -67 84 -114 141 -123 50 -8 161
12 218 39 l35 16 -73 -6 c-92 -8 -176 8 -197 38 -16 22 -21 123 -7 143 4 5 54
38 112 72 89 54 695 473 724 502 24 24 -22 4 -219 -94z"/>
<path d="M24410 29238 c-401 -179 -821 -331 -1000 -362 -123 -22 -349 -31
-420 -18 -30 6 -56 9 -58 7 -2 -2 13 -22 33 -44 20 -22 76 -96 123 -165 267
-383 332 -463 407 -497 84 -39 245 -19 352 43 120 69 254 202 352 349 62 94
223 403 306 589 26 58 54 113 62 122 16 18 10 38 -10 37 -7 0 -73 -27 -147
-61z m-98 -185 c-59 -71 -218 -223 -287 -274 -136 -103 -299 -188 -408 -214
-125 -30 -201 -18 -352 55 -126 61 -164 88 -80 58 89 -33 254 -30 388 6 240
64 401 148 682 355 44 33 84 60 88 60 5 1 -9 -20 -31 -46z"/>
<path d="M31791 29065 c-240 -171 -491 -321 -713 -427 -104 -51 -106 -52 -112
-91 -8 -49 -47 -126 -87 -171 -34 -39 -146 -112 -222 -146 -27 -12 -47 -24
-44 -26 2 -2 44 -13 93 -24 222 -48 622 -65 850 -35 169 23 367 73 507 130 15
6 8 17 -41 69 -101 108 -97 90 -97 479 0 185 0 337 0 337 0 0 -60 -43 -134
-95z"/>
<path d="M32161 28169 c-76 -34 -331 -119 -450 -150 -233 -60 -329 -73 -541
-73 -269 -1 -445 34 -714 139 l-116 45 -135 -52 c-74 -28 -135 -55 -135 -58 0
-13 233 -127 334 -165 129 -47 294 -90 425 -109 57 -9 105 -17 108 -19 3 -4
-96 -417 -102 -425 -4 -5 -218 29 -343 54 -325 66 -688 203 -973 367 -64 37
-123 67 -131 67 -7 0 -58 -15 -112 -33 l-98 -33 33 -25 c341 -252 943 -486
1429 -554 63 -9 125 -18 136 -21 l21 -4 -19 -92 c-23 -113 -82 -460 -98 -580
l-12 -88 -158 0 c-211 0 -480 -16 -670 -40 -212 -27 -455 -36 -610 -21 -246
24 -376 65 -500 157 -41 31 -101 69 -133 86 -66 33 -231 90 -323 111 l-62 15
-6 -57 c-4 -31 -9 -72 -12 -92 l-5 -37 53 -12 c92 -22 246 -77 296 -106 26
-15 65 -43 87 -61 94 -80 247 -136 468 -170 154 -24 508 -23 707 1 272 33 305
35 574 42 l269 7 -6 -69 c-18 -191 -27 -319 -29 -419 l-3 -110 153 -3 152 -3
0 306 0 305 23 0 c12 0 220 -5 462 -10 637 -14 1010 -34 1349 -71 99 -10 181
-19 183 -19 1 0 3 -232 3 -515 l0 -516 -47 5 c-27 3 -97 8 -158 11 -60 4 -351
24 -645 45 -967 71 -1459 100 -2070 121 -376 13 -940 7 -1102 -11 -99 -11
-118 -11 -235 10 -112 19 -501 100 -559 116 -19 5 -22 0 -27 -57 -14 -130 -17
-125 66 -143 39 -10 173 -38 297 -63 257 -52 335 -57 590 -34 119 10 264 12
620 8 644 -8 1234 -39 2430 -127 223 -17 503 -36 623 -44 121 -8 220 -16 222
-18 2 -2 8 -95 14 -208 6 -113 18 -299 27 -413 9 -115 13 -211 10 -214 -3 -3
-103 0 -223 6 -544 27 -1393 51 -1868 51 -550 0 -1383 56 -1915 127 -215 29
-604 42 -856 28 l-131 -7 -9 -89 -9 -88 400 1 c323 1 422 -2 515 -16 154 -22
654 -71 920 -91 426 -31 555 -35 1195 -45 644 -9 1120 -22 1515 -40 522 -24
490 -21 490 -42 0 -30 50 -489 74 -679 l22 -176 -125 -6 c-70 -4 -286 -25
-481 -47 -793 -90 -1233 -120 -1774 -120 -725 0 -1212 56 -1736 200 -436 120
-465 125 -853 125 -335 0 -312 6 -323 -82 l-6 -53 -75 3 c-70 2 -77 0 -92 -22
-81 -121 -268 -758 -259 -881 3 -40 6 -45 53 -70 28 -14 104 -45 171 -68 172
-58 234 -87 234 -109 0 -40 -30 -195 -55 -289 -31 -117 -107 -281 -170 -369
-104 -146 -370 -339 -720 -522 -100 -52 -105 -56 -99 -81 4 -15 7 -28 8 -29 2
-2 682 233 1001 347 541 192 716 266 858 361 l78 52 111 -76 c61 -42 113 -75
115 -73 2 2 -3 92 -12 201 -8 109 -14 200 -11 202 2 2 100 -5 217 -16 532 -50
926 -71 1335 -71 545 0 805 33 1384 174 289 71 399 92 539 107 130 13 409 7
517 -11 l71 -12 33 -230 34 -230 -39 -117 c-21 -64 -51 -151 -67 -194 l-30
-78 -82 8 c-125 12 -330 7 -441 -11 -355 -59 -1309 -240 -1770 -336 -647 -136
-676 -141 -975 -161 -165 -11 -553 -6 -622 8 l-28 6 0 -91 c0 -69 3 -91 14
-95 8 -3 115 -9 238 -13 366 -11 655 15 1028 92 820 170 1339 271 1950 380
243 44 278 48 425 48 89 0 166 -4 173 -8 23 -14 -121 -269 -223 -396 l-63 -79
46 -16 c61 -21 515 -175 517 -175 1 0 24 79 50 175 27 96 50 173 51 172 4 -5
64 -340 61 -343 -2 -2 -104 -8 -228 -14 -864 -40 -1489 -128 -2051 -291 -456
-131 -1018 -336 -1681 -612 l-269 -111 4 -87 c1 -48 6 -90 9 -94 4 -3 98 33
210 80 768 327 1443 569 1954 700 490 126 1081 202 1844 235 134 6 245 9 246
8 2 -2 32 -149 69 -328 36 -179 69 -335 72 -347 6 -21 3 -23 -29 -23 -64 0
-389 -20 -577 -36 -618 -51 -1348 -183 -1805 -325 -550 -172 -1219 -522 -1852
-968 l-178 -126 -3 -99 c-1 -55 1 -103 5 -107 5 -5 65 32 133 83 279 203 643
436 931 596 478 264 866 421 1307 531 197 48 549 118 555 110 4 -4 172 -896
183 -964 3 -22 30 -168 60 -325 30 -157 160 -841 290 -1520 129 -679 237
-1243 240 -1252 5 -16 20 -18 139 -18 l133 0 304 116 c166 63 384 147 483 186
99 38 265 103 369 144 104 40 190 75 192 77 2 1 14 47 28 100 16 60 37 203 56
370 59 526 105 831 155 1016 14 51 61 193 104 315 134 378 160 476 168 653 9
192 12 182 -272 978 -214 600 -305 871 -341 1019 -13 55 -44 233 -68 395 -70
459 -66 421 -42 426 390 90 1126 274 1225 305 31 10 115 36 187 59 73 23 140
48 150 56 32 23 29 138 -12 515 -31 285 -35 354 -27 400 110 589 114 759 24
1148 -69 295 -212 845 -395 1512 -252 923 -271 988 -274 954 l-3 -31 -527
-117 c-290 -64 -619 -138 -732 -165 -182 -42 -205 -45 -208 -30 -7 36 119 823
134 838 2 3 98 6 212 7 114 1 232 6 262 12 30 6 98 20 150 31 121 25 290 47
487 63 l155 12 -7 91 c-4 49 -8 91 -8 91 -4 3 -387 -35 -467 -46 -47 -6 -152
-25 -235 -42 -132 -27 -171 -31 -327 -32 -97 0 -179 1 -181 4 -6 6 71 354 123
560 35 138 149 551 179 645 l19 60 66 20 c36 11 66 23 66 26 0 3 -24 13 -54
23 -48 15 -67 30 -153 121 l-98 104 -382 74 c-331 63 -384 71 -388 58 -9 -30
-53 -306 -66 -413 -9 -83 -16 -109 -28 -112 -86 -26 -427 -68 -706 -87 -225
-16 -810 -16 -1060 0 -110 7 -202 15 -204 17 -2 2 15 103 39 224 l42 220 47 0
c151 0 491 57 775 130 163 41 493 142 519 157 7 4 -133 101 -238 165 -6 4 -30
-2 -54 -13z m815 -1231 c-8 -101 -20 -291 -27 -423 -6 -132 -13 -241 -14 -243
-2 -2 -63 4 -137 12 -371 43 -1051 76 -1595 76 l-283 0 0 48 c0 137 62 666 80
686 5 5 97 3 212 -4 251 -15 865 -15 1093 -1 181 12 494 45 610 64 69 12 70
12 73 -10 2 -12 -4 -104 -12 -205z m2058 -1720 c9 -112 74 -956 78 -1018 l3
-55 -104 -27 c-129 -33 -354 -74 -486 -88 -55 -6 -329 -13 -608 -17 l-508 -6
6 39 c3 21 12 116 20 209 26 279 74 688 82 695 9 8 1457 335 1499 339 7 1 14
-28 18 -71z m96 -1266 c0 -100 43 -743 56 -838 l6 -41 -124 -26 c-184 -40
-396 -74 -548 -88 -192 -17 -1107 -7 -1125 13 -7 7 -20 63 -30 123 -15 103
-16 125 -1 325 9 118 19 249 22 290 3 41 7 84 9 96 5 21 7 21 507 27 629 8
810 24 1099 96 135 34 129 33 129 23z m-6635 -1018 c61 -7 261 -52 445 -98
646 -163 993 -201 1805 -200 638 1 934 20 1768 114 392 45 577 59 577 43 0 -6
-11 -66 -25 -134 -47 -226 -76 -432 -82 -577 l-6 -144 -36 6 c-20 3 -122 9
-227 12 -291 10 -433 -9 -894 -122 -388 -95 -598 -131 -894 -155 -192 -15
-922 -6 -1211 15 -399 30 -774 64 -787 72 -5 3 -8 20 -8 37 1 93 -74 933 -84
944 -26 26 -304 102 -608 164 -88 18 -155 36 -151 42 7 12 270 0 418 -19z
m6715 -52 c0 -5 11 -98 25 -208 14 -109 25 -206 25 -215 0 -12 -23 -18 -122
-28 -445 -46 -1275 -237 -1545 -356 l-52 -23 -5 26 c-3 15 -28 167 -56 337
-27 171 -52 321 -55 335 l-6 26 563 -1 c627 0 684 4 1044 79 186 39 184 38
184 28z m-1446 -4569 c3 -16 28 -172 56 -348 27 -176 102 -650 165 -1053 63
-403 115 -741 115 -751 0 -14 -81 -51 -372 -169 -204 -84 -372 -151 -373 -150
-1 2 -27 111 -58 243 -31 132 -153 649 -272 1150 -118 500 -214 914 -212 919
2 7 862 177 934 185 6 0 14 -11 17 -26z"/>
<path d="M22286 27095 c-121 -138 -174 -214 -185 -265 -6 -25 -15 -164 -20
-310 -9 -237 -12 -276 -37 -370 -23 -92 -25 -111 -16 -155 6 -27 31 -139 56
-247 80 -353 130 -711 142 -1011 6 -140 5 -170 -7 -178 -8 -5 -89 -9 -181 -9
l-168 0 0 -129 c0 -147 -4 -141 91 -141 32 0 59 -4 59 -8 0 -4 -41 -392 -90
-862 -77 -729 -93 -905 -105 -1190 -8 -184 -20 -375 -25 -425 -50 -420 -564
-1184 -912 -1354 -160 -78 -261 -55 -348 81 -137 211 -209 655 -197 1212 7
348 30 516 97 711 69 202 132 505 195 937 72 489 161 1037 170 1047 2 2 70 -9
151 -23 81 -15 150 -23 154 -19 4 4 22 53 40 107 34 106 32 115 -20 116 -91 1
-620 97 -620 112 0 31 210 608 328 903 130 325 294 678 390 842 25 41 28 54
19 67 -11 15 -25 14 -162 -4 -268 -37 -478 -123 -821 -337 l-121 -75 -17 -132
c-9 -72 -30 -237 -46 -366 -37 -289 -81 -548 -126 -739 -47 -198 -78 -396
-114 -716 -124 -1118 -183 -2504 -126 -2935 86 -642 338 -1418 556 -1712 65
-88 114 -120 197 -129 35 -4 66 -9 69 -11 2 -3 -9 -126 -25 -274 -64 -573 -85
-946 -85 -1524 -1 -734 42 -1139 154 -1483 127 -386 301 -501 499 -329 l44 38
-29 406 -28 407 -34 -61 c-73 -132 -215 -318 -242 -318 -26 0 -67 195 -94 440
-57 510 -64 1093 -21 1685 25 352 67 769 95 940 5 33 10 63 10 68 0 4 98 7
219 7 l218 0 166 308 c91 169 265 487 387 707 577 1039 751 1371 788 1511 43
161 56 307 56 644 1 315 -10 482 -40 649 -12 65 -33 120 -95 251 l-80 166 60
200 c145 482 233 836 263 1064 17 135 14 512 -6 700 -35 322 -103 699 -192
1055 -48 193 -125 463 -147 516 l-13 33 -78 -89z m-78 -2830 c6 -5 -11 -175
-17 -175 -9 0 -72 171 -66 180 5 7 73 3 83 -5z"/>
<path d="M23021 27125 l-154 -31 46 -39 c80 -67 218 -162 348 -239 515 -308
949 -373 1482 -220 153 43 468 180 467 202 -1 4 -80 53 -177 110 l-177 103
-79 -36 c-160 -73 -377 -131 -607 -160 -104 -14 -141 -15 -224 -5 -212 25
-404 101 -621 246 -60 41 -119 80 -130 87 -17 12 -42 9 -174 -18z"/>
<path d="M18490 25332 c0 -12 19 -26 26 -19 2 2 -2 10 -11 17 -9 8 -15 8 -15
2z"/>
<path d="M15230 24935 c-580 -95 -1267 -208 -1527 -250 l-472 -78 -143 -93
c-79 -51 -147 -95 -152 -97 -4 -1 56 -386 134 -854 l141 -851 -121 -242 c-116
-232 -213 -440 -208 -446 2 -1 76 13 166 32 224 47 546 101 1067 179 680 102
902 142 968 176 100 52 180 144 284 331 113 200 147 228 393 313 182 62 298
121 400 200 119 92 142 106 170 103 21 -3 26 -9 28 -39 4 -45 -24 -108 -81
-185 -51 -70 -153 -142 -307 -219 -93 -47 -160 -90 -160 -105 0 -10 139 -1
241 15 186 31 329 96 383 174 25 36 28 48 27 123 0 80 -104 1797 -117 1926 -5
59 -7 62 -32 61 -15 -1 -502 -79 -1082 -174z"/>
<path d="M26895 24364 c-133 -63 -454 -150 -738 -199 l-97 -17 5 -32 c2 -17 9
-74 15 -126 6 -52 13 -96 15 -99 8 -7 164 18 278 45 127 30 277 102 489 233
l136 84 -20 61 c-12 34 -23 64 -27 67 -3 4 -28 -4 -56 -17z"/>
<path d="M16480 22150 c-25 -14 -208 -58 -310 -74 -217 -35 -417 -31 -777 16
-152 19 -176 20 -200 7 -15 -8 -208 -149 -428 -314 -220 -166 -481 -359 -580
-429 -185 -132 -547 -374 -622 -417 -24 -13 -43 -31 -43 -39 -1 -29 233 -1425
240 -1433 3 -4 89 6 191 22 101 16 186 27 188 25 1 -1 -29 -66 -68 -143 -89
-175 -489 -1178 -788 -1976 -164 -438 -202 -556 -213 -659 -25 -249 -21 -884
15 -2461 30 -1292 40 -2247 27 -2610 -6 -187 -18 -383 -26 -436 -26 -171 -95
-469 -253 -1104 -237 -952 -329 -1369 -354 -1597 -13 -118 -7 -375 16 -658 53
-661 218 -1772 451 -3040 36 -195 68 -370 71 -388 3 -17 7 -32 8 -32 1 0 132
30 291 66 159 37 301 69 316 71 30 6 26 -25 53 418 82 1340 255 2776 461 3820
99 500 135 649 359 1470 161 590 426 1593 625 2360 95 369 401 1592 415 1663
4 18 9 31 11 29 15 -14 204 -1175 283 -1732 99 -692 134 -1053 135 -1365 l0
-225 -38 -140 c-20 -77 -91 -331 -158 -565 -205 -725 -312 -1173 -369 -1550
-33 -212 -33 -527 -1 -735 105 -677 392 -1885 799 -3360 l58 -210 47 -3 c45
-3 466 37 623 59 l80 11 1 437 c2 953 77 2486 174 3556 60 658 94 909 225
1690 351 2084 519 3543 575 5000 49 1257 -86 2751 -337 3739 -56 222 -114 393
-188 556 -91 199 -358 735 -551 1105 l-177 340 -5 183 c-3 100 -5 182 -6 182
0 0 -34 -6 -73 -14 -40 -7 -73 -11 -73 -7 1 3 -12 207 -27 454 -29 474 -27
465 -73 437z"/>
<path d="M16947 21928 c-122 -357 -177 -524 -173 -534 2 -6 69 -18 153 -28 81
-9 167 -20 190 -23 l42 -6 -25 89 c-13 49 -52 195 -86 324 -34 129 -65 239
-69 243 -3 5 -18 -24 -32 -65z"/>
<path d="M36133 19677 l-653 -132 -4 -30 c-3 -16 -14 -136 -26 -265 -17 -188
-77 -728 -105 -945 -23 -186 -45 -395 -45 -435 0 -59 25 -133 213 -620 308
-799 416 -1136 417 -1298 0 -35 4 -62 9 -60 5 2 324 124 709 273 635 244 701
272 697 290 -5 20 -445 3280 -445 3294 0 6 -106 63 -113 60 -1 -1 -296 -60
-654 -132z m711 -1114 c157 -1155 204 -1519 198 -1524 -10 -9 -143 -52 -146
-48 -2 3 -242 1694 -249 1753 -2 16 15 28 73 57 41 21 77 38 80 38 3 1 23
-124 44 -276z"/>
<path d="M34816 16174 c-3 -10 -23 -109 -45 -219 -44 -218 -71 -406 -71 -490
l0 -53 127 49 c70 27 128 49 129 49 2 0 8 25 14 56 20 96 -16 288 -96 501 -46
125 -50 132 -58 107z"/>
<path d="M21230 14221 l0 -148 189 -86 c206 -94 396 -168 626 -245 808 -270
1548 -378 2580 -376 426 0 620 8 965 40 168 16 219 22 395 48 55 9 103 16 108
16 10 0 9 168 -2 174 -5 3 -73 -1 -152 -9 -310 -30 -553 -40 -1034 -39 -1127
0 -1824 100 -2705 386 -296 96 -722 263 -902 354 l-68 34 0 -149z"/>
<path d="M30180 5978 c-165 -15 -508 -67 -710 -108 -218 -43 -344 -80 -383
-111 -15 -11 -42 -53 -61 -92 -70 -150 -219 -591 -351 -1042 -25 -88 -55 -190
-66 -226 l-19 -66 -152 -105 c-84 -58 -214 -146 -288 -195 -149 -99 -190 -139
-229 -223 -20 -44 -25 -71 -26 -137 0 -45 3 -84 6 -87 3 -4 69 -13 145 -21
505 -52 1038 -55 1374 -9 345 47 851 183 1327 356 l193 69 77 -62 c43 -35 108
-92 146 -128 62 -59 71 -64 111 -64 27 0 58 8 81 22 22 13 41 18 44 13 3 -6
17 -89 30 -186 l23 -175 -50 -113 c-81 -184 -95 -251 -68 -328 12 -34 14 -35
91 -47 258 -40 823 -83 1081 -83 352 0 722 63 1088 185 74 25 138 45 143 44 8
0 18 -12 127 -152 65 -84 64 -84 145 -33 97 62 164 146 201 255 11 34 28 124
36 199 34 309 27 1169 -11 1241 -36 71 -225 209 -390 285 -399 186 -955 310
-1304 290 -228 -12 -583 -115 -835 -241 -56 -28 -67 -31 -62 -16 10 25 20 314
13 345 -19 74 -519 439 -837 611 -249 134 -373 160 -640 135z"/>
<path d="M26646 5159 c-33 -5 -64 -13 -70 -19 -15 -15 7 -106 65 -265 67 -183
106 -310 114 -376 11 -94 -54 -371 -129 -546 -50 -117 -96 -185 -193 -284
l-84 -87 68 20 c96 28 308 35 428 14 237 -41 473 -160 613 -311 l60 -64 42 45
c87 94 130 232 137 435 5 124 2 157 -15 225 -24 96 -120 328 -233 562 l-83
173 -66 -7 c-46 -4 -70 -3 -74 5 -4 6 0 84 10 174 10 96 14 183 10 211 -7 44
-11 49 -49 66 -23 10 -77 23 -120 29 -91 13 -345 13 -431 0z"/>
<path d="M22345 5041 c-74 -9 -115 -28 -134 -63 -23 -41 -2 -159 64 -351 31
-89 76 -220 101 -291 24 -71 44 -142 44 -159 0 -20 -20 -62 -61 -124 -33 -52
-81 -137 -106 -190 -58 -121 -64 -182 -33 -302 26 -101 47 -146 92 -188 l33
-32 55 33 c88 52 222 105 348 139 111 29 127 31 307 31 184 1 193 0 270 -27
44 -16 95 -38 113 -49 27 -16 5 17 -103 163 -171 229 -307 432 -352 524 -42
85 -41 108 11 393 23 123 36 224 36 277 0 78 -2 85 -25 104 -31 23 -140 65
-210 80 -125 26 -360 43 -450 32z"/>
<path d="M13719 4416 c-2 -2 -40 -7 -84 -10 -114 -9 -254 -34 -295 -54 -47
-23 -57 -63 -43 -179 5 -48 9 -89 8 -91 -1 -1 -69 50 -150 113 -81 64 -149
114 -150 113 -2 -2 -10 -52 -19 -113 l-17 -109 46 -94 c156 -323 427 -565 754
-672 244 -79 579 -112 941 -91 169 10 429 37 437 45 8 8 -30 166 -49 205 -29
58 -41 63 -363 176 -278 97 -396 146 -483 199 -72 43 -205 181 -337 346 -146
185 -185 227 -196 216z"/>
<path d="M17180 4371 c-81 -25 -140 -75 -140 -119 0 -26 28 -92 48 -115 8 -9
13 -19 11 -21 -2 -2 -181 -8 -398 -15 -217 -6 -396 -12 -398 -14 -1 -2 -16
-120 -33 -263 -16 -142 -32 -275 -34 -294 l-5 -35 542 -1 c463 0 607 -4 990
-27 247 -15 578 -32 735 -38 282 -12 291 -12 567 16 154 15 282 29 283 30 10
9 -16 54 -55 96 -66 71 -107 82 -414 119 -402 48 -625 93 -798 162 -143 56
-342 178 -636 388 -200 143 -210 148 -265 131z"/>
</g>
</svg>
